<svg xmlns="http://www.w3.org/2000/svg" xmlns:xlink="http://www.w3.org/1999/xlink" width="3000" zoomAndPan="magnify" viewBox="0 0 2250 749.999995" height="1000" preserveAspectRatio="xMidYMid meet" version="1.0"><defs><g/></defs><g fill="#ffffff" fill-opacity="1"><g transform="translate(86.734512, 519.374995)"><g><path d="M 89.59375 -251.65625 C 101.257812 -251.65625 110.125 -250.3125 116.1875 -247.625 C 122.257812 -244.9375 127.628906 -241.960938 132.296875 -238.703125 C 135.097656 -237.066406 137.375 -235.835938 139.125 -235.015625 C 140.875 -234.203125 142.566406 -233.796875 144.203125 -233.796875 C 146.535156 -233.796875 148.222656 -235.078125 149.265625 -237.640625 C 150.316406 -240.210938 151.195312 -244.066406 151.90625 -249.203125 L 159.953125 -249.203125 C 159.710938 -245.234375 159.414062 -240.503906 159.0625 -235.015625 C 158.71875 -229.535156 158.488281 -222.300781 158.375 -213.3125 C 158.257812 -204.332031 158.203125 -192.492188 158.203125 -177.796875 L 150.15625 -177.796875 C 149.445312 -188.992188 146.992188 -199.726562 142.796875 -210 C 138.597656 -220.269531 132.472656 -228.671875 124.421875 -235.203125 C 116.367188 -241.734375 105.8125 -245 92.75 -245 C 80.382812 -245 70.175781 -241.265625 62.125 -233.796875 C 54.070312 -226.328125 50.046875 -216.53125 50.046875 -204.40625 C 50.046875 -193.90625 52.726562 -185.09375 58.09375 -177.96875 C 63.46875 -170.851562 70.644531 -164.4375 79.625 -158.71875 C 88.601562 -153.007812 98.34375 -146.882812 108.84375 -140.34375 C 120.976562 -132.882812 131.769531 -125.476562 141.21875 -118.125 C 150.675781 -110.769531 158.144531 -102.660156 163.625 -93.796875 C 169.101562 -84.929688 171.84375 -74.195312 171.84375 -61.59375 C 171.84375 -46.664062 168.457031 -34.300781 161.6875 -24.5 C 154.925781 -14.695312 145.945312 -7.34375 134.75 -2.4375 C 123.550781 2.457031 111.1875 4.90625 97.65625 4.90625 C 85.28125 4.90625 75.476562 3.503906 68.25 0.703125 C 61.019531 -2.097656 54.835938 -5.015625 49.703125 -8.046875 C 44.566406 -11.316406 40.597656 -12.953125 37.796875 -12.953125 C 35.460938 -12.953125 33.769531 -11.664062 32.71875 -9.09375 C 31.675781 -6.53125 30.800781 -2.679688 30.09375 2.453125 L 22.046875 2.453125 C 22.515625 -2.453125 22.804688 -8.226562 22.921875 -14.875 C 23.035156 -21.519531 23.148438 -30.207031 23.265625 -40.9375 C 23.390625 -51.675781 23.453125 -65.210938 23.453125 -81.546875 L 31.5 -81.546875 C 32.4375 -67.546875 35.0625 -54.476562 39.375 -42.34375 C 43.6875 -30.21875 50.332031 -20.476562 59.3125 -13.125 C 68.300781 -5.769531 80.265625 -2.09375 95.203125 -2.09375 C 102.898438 -2.09375 110.191406 -3.664062 117.078125 -6.8125 C 123.960938 -9.96875 129.617188 -14.988281 134.046875 -21.875 C 138.484375 -28.757812 140.703125 -37.6875 140.703125 -48.65625 C 140.703125 -58.21875 138.425781 -66.554688 133.875 -73.671875 C 129.320312 -80.785156 122.960938 -87.4375 114.796875 -93.625 C 106.628906 -99.8125 97.0625 -106.171875 86.09375 -112.703125 C 75.132812 -119.460938 64.867188 -126.34375 55.296875 -133.34375 C 45.734375 -140.34375 38.09375 -148.453125 32.375 -157.671875 C 26.65625 -166.890625 23.796875 -178.03125 23.796875 -191.09375 C 23.796875 -204.863281 26.882812 -216.238281 33.0625 -225.21875 C 39.25 -234.207031 47.359375 -240.859375 57.390625 -245.171875 C 67.429688 -249.492188 78.164062 -251.65625 89.59375 -251.65625 Z M 89.59375 -251.65625 "/></g></g></g><g fill="#ffffff" fill-opacity="1"><g transform="translate(275.731458, 519.374995)"><g><path d="M 66.5 -238.34375 L 66.5 -179.90625 L 118.296875 -179.90625 L 118.296875 -172.90625 L 66.5 -172.90625 L 66.5 -37.453125 C 66.5 -26.484375 68.484375 -18.78125 72.453125 -14.34375 C 76.421875 -9.914062 81.90625 -7.703125 88.90625 -7.703125 C 95.90625 -7.703125 101.96875 -10.554688 107.09375 -16.265625 C 112.226562 -21.984375 116.664062 -31.613281 120.40625 -45.15625 L 127.40625 -43.40625 C 125.070312 -29.863281 120.460938 -18.425781 113.578125 -9.09375 C 106.691406 0.238281 96.132812 4.90625 81.90625 4.90625 C 73.96875 4.90625 67.429688 3.910156 62.296875 1.921875 C 57.160156 -0.0546875 52.613281 -2.914062 48.65625 -6.65625 C 43.519531 -12.019531 39.957031 -18.429688 37.96875 -25.890625 C 35.988281 -33.359375 35 -43.28125 35 -55.65625 L 35 -172.90625 L 1.40625 -172.90625 L 1.40625 -179.90625 L 35 -179.90625 L 35 -233.453125 C 40.832031 -233.679688 46.429688 -234.144531 51.796875 -234.84375 C 57.160156 -235.550781 62.0625 -236.71875 66.5 -238.34375 Z M 66.5 -238.34375 "/></g></g></g><g fill="#ffffff" fill-opacity="1"><g transform="translate(399.629469, 519.374995)"><g><path d="M 95.203125 -185.15625 C 115.734375 -185.15625 131.773438 -178.910156 143.328125 -166.421875 C 154.878906 -153.941406 160.65625 -134.519531 160.65625 -108.15625 L 37.09375 -108.15625 L 36.75 -114.796875 L 127.046875 -114.796875 C 127.515625 -126.234375 126.582031 -136.789062 124.25 -146.46875 C 121.914062 -156.15625 118.238281 -163.914062 113.21875 -169.75 C 108.207031 -175.582031 101.734375 -178.5 93.796875 -178.5 C 83.066406 -178.5 73.554688 -173.128906 65.265625 -162.390625 C 56.984375 -151.660156 52.03125 -134.628906 50.40625 -111.296875 L 51.453125 -109.90625 C 50.984375 -106.40625 50.628906 -102.550781 50.390625 -98.34375 C 50.160156 -94.144531 50.046875 -89.945312 50.046875 -85.75 C 50.046875 -69.882812 52.613281 -56.234375 57.75 -44.796875 C 62.882812 -33.367188 69.59375 -24.675781 77.875 -18.71875 C 86.15625 -12.769531 94.726562 -9.796875 103.59375 -9.796875 C 110.59375 -9.796875 117.242188 -10.90625 123.546875 -13.125 C 129.847656 -15.34375 135.679688 -19.015625 141.046875 -24.140625 C 146.410156 -29.273438 151.078125 -36.160156 155.046875 -44.796875 L 162.046875 -42 C 159.484375 -34.300781 155.285156 -26.832031 149.453125 -19.59375 C 143.617188 -12.363281 136.265625 -6.472656 127.390625 -1.921875 C 118.523438 2.628906 108.257812 4.90625 96.59375 4.90625 C 79.800781 4.90625 65.394531 1.054688 53.375 -6.640625 C 41.351562 -14.347656 32.132812 -25.023438 25.71875 -38.671875 C 19.300781 -52.328125 16.09375 -68.019531 16.09375 -85.75 C 16.09375 -106.28125 19.359375 -123.953125 25.890625 -138.765625 C 32.429688 -153.585938 41.648438 -165.023438 53.546875 -173.078125 C 65.453125 -181.128906 79.335938 -185.15625 95.203125 -185.15625 Z M 95.203125 -185.15625 "/></g></g></g><g fill="#ffffff" fill-opacity="1"><g transform="translate(576.726601, 519.374995)"><g><path d="M 65.796875 -274.40625 L 65.796875 -32.546875 C 65.796875 -22.742188 67.835938 -16.09375 71.921875 -12.59375 C 76.003906 -9.09375 82.832031 -7.34375 92.40625 -7.34375 L 92.40625 0 C 88.4375 -0.226562 82.425781 -0.519531 74.375 -0.875 C 66.320312 -1.226562 58.210938 -1.40625 50.046875 -1.40625 C 42.117188 -1.40625 34.070312 -1.226562 25.90625 -0.875 C 17.738281 -0.519531 11.671875 -0.226562 7.703125 0 L 7.703125 -7.34375 C 17.265625 -7.34375 24.085938 -9.09375 28.171875 -12.59375 C 32.253906 -16.09375 34.296875 -22.742188 34.296875 -32.546875 L 34.296875 -232.40625 C 34.296875 -242.90625 32.425781 -250.660156 28.6875 -255.671875 C 24.957031 -260.691406 17.960938 -263.203125 7.703125 -263.203125 L 7.703125 -270.546875 C 15.171875 -269.847656 22.40625 -269.5 29.40625 -269.5 C 36.164062 -269.5 42.632812 -269.90625 48.8125 -270.71875 C 55 -271.539062 60.660156 -272.769531 65.796875 -274.40625 Z M 65.796875 -274.40625 "/></g></g></g><g fill="#ffffff" fill-opacity="1"><g transform="translate(676.825, 519.374995)"><g><path d="M 65.796875 -274.40625 L 65.796875 -32.546875 C 65.796875 -22.742188 67.835938 -16.09375 71.921875 -12.59375 C 76.003906 -9.09375 82.832031 -7.34375 92.40625 -7.34375 L 92.40625 0 C 88.4375 -0.226562 82.425781 -0.519531 74.375 -0.875 C 66.320312 -1.226562 58.210938 -1.40625 50.046875 -1.40625 C 42.117188 -1.40625 34.070312 -1.226562 25.90625 -0.875 C 17.738281 -0.519531 11.671875 -0.226562 7.703125 0 L 7.703125 -7.34375 C 17.265625 -7.34375 24.085938 -9.09375 28.171875 -12.59375 C 32.253906 -16.09375 34.296875 -22.742188 34.296875 -32.546875 L 34.296875 -232.40625 C 34.296875 -242.90625 32.425781 -250.660156 28.6875 -255.671875 C 24.957031 -260.691406 17.960938 -263.203125 7.703125 -263.203125 L 7.703125 -270.546875 C 15.171875 -269.847656 22.40625 -269.5 29.40625 -269.5 C 36.164062 -269.5 42.632812 -269.90625 48.8125 -270.71875 C 55 -271.539062 60.660156 -272.769531 65.796875 -274.40625 Z M 65.796875 -274.40625 "/></g></g></g><g fill="#ffffff" fill-opacity="1"><g transform="translate(776.923399, 519.374995)"><g><path d="M 59.84375 2.453125 C 50.28125 2.453125 42 0.644531 35 -2.96875 C 28 -6.59375 22.691406 -11.671875 19.078125 -18.203125 C 15.460938 -24.734375 13.65625 -32.316406 13.65625 -40.953125 C 13.65625 -51.210938 16.046875 -59.609375 20.828125 -66.140625 C 25.609375 -72.679688 31.734375 -77.929688 39.203125 -81.890625 C 46.671875 -85.859375 54.546875 -89.1875 62.828125 -91.875 C 71.109375 -94.5625 78.984375 -97.128906 86.453125 -99.578125 C 93.921875 -102.023438 100.046875 -104.878906 104.828125 -108.140625 C 109.609375 -111.410156 112 -115.726562 112 -121.09375 L 112 -142.796875 C 112 -152.597656 110.539062 -160.066406 107.625 -165.203125 C 104.707031 -170.335938 100.796875 -173.78125 95.890625 -175.53125 C 90.992188 -177.28125 85.515625 -178.15625 79.453125 -178.15625 C 73.617188 -178.15625 67.375 -177.335938 60.71875 -175.703125 C 54.070312 -174.066406 48.765625 -170.679688 44.796875 -165.546875 C 49.234375 -164.617188 53.082031 -162.285156 56.34375 -158.546875 C 59.613281 -154.816406 61.25 -150.035156 61.25 -144.203125 C 61.25 -138.367188 59.378906 -133.757812 55.640625 -130.375 C 51.910156 -126.988281 47.128906 -125.296875 41.296875 -125.296875 C 34.535156 -125.296875 29.578125 -127.453125 26.421875 -131.765625 C 23.273438 -136.085938 21.703125 -140.929688 21.703125 -146.296875 C 21.703125 -152.367188 23.21875 -157.269531 26.25 -161 C 29.28125 -164.726562 33.128906 -168.226562 37.796875 -171.5 C 43.160156 -175.226562 50.101562 -178.4375 58.625 -181.125 C 67.144531 -183.8125 76.769531 -185.15625 87.5 -185.15625 C 97.0625 -185.15625 105.226562 -184.046875 112 -181.828125 C 118.769531 -179.609375 124.367188 -176.398438 128.796875 -172.203125 C 134.867188 -166.597656 138.835938 -159.769531 140.703125 -151.71875 C 142.566406 -143.675781 143.5 -134.050781 143.5 -122.84375 L 143.5 -25.546875 C 143.5 -19.710938 144.375 -15.507812 146.125 -12.9375 C 147.875 -10.375 150.613281 -9.09375 154.34375 -9.09375 C 156.914062 -9.09375 159.367188 -9.675781 161.703125 -10.84375 C 164.035156 -12.007812 166.832031 -13.878906 170.09375 -16.453125 L 173.953125 -10.5 C 169.046875 -6.769531 164.375 -3.675781 159.9375 -1.21875 C 155.507812 1.226562 149.5625 2.453125 142.09375 2.453125 C 135.332031 2.453125 129.734375 1.285156 125.296875 -1.046875 C 120.867188 -3.378906 117.546875 -6.820312 115.328125 -11.375 C 113.109375 -15.925781 112 -21.703125 112 -28.703125 C 105.695312 -18.203125 98.171875 -10.382812 89.421875 -5.25 C 80.671875 -0.113281 70.8125 2.453125 59.84375 2.453125 Z M 72.453125 -11.546875 C 80.148438 -11.546875 87.320312 -13.757812 93.96875 -18.1875 C 100.625 -22.625 106.632812 -29.28125 112 -38.15625 L 112 -106.75 C 109.195312 -102.78125 105.113281 -99.453125 99.75 -96.765625 C 94.382812 -94.085938 88.550781 -91.40625 82.25 -88.71875 C 75.945312 -86.039062 69.9375 -82.890625 64.21875 -79.265625 C 58.507812 -75.648438 53.785156 -70.925781 50.046875 -65.09375 C 46.316406 -59.257812 44.453125 -51.675781 44.453125 -42.34375 C 44.453125 -33.007812 46.957031 -25.539062 51.96875 -19.9375 C 56.988281 -14.34375 63.816406 -11.546875 72.453125 -11.546875 Z M 72.453125 -11.546875 "/></g></g></g><g fill="#ffffff" fill-opacity="1"><g transform="translate(951.220616, 519.374995)"><g><path d="M 119 -185.15625 C 125.300781 -185.15625 130.84375 -183.867188 135.625 -181.296875 C 140.40625 -178.734375 144.132812 -175.410156 146.8125 -171.328125 C 149.5 -167.242188 150.84375 -162.632812 150.84375 -157.5 C 150.84375 -151.664062 149.035156 -146.53125 145.421875 -142.09375 C 141.804688 -137.664062 136.96875 -135.453125 130.90625 -135.453125 C 126 -135.453125 121.675781 -137.023438 117.9375 -140.171875 C 114.207031 -143.328125 112.34375 -147.820312 112.34375 -153.65625 C 112.34375 -158.082031 113.566406 -161.867188 116.015625 -165.015625 C 118.472656 -168.171875 121.21875 -170.679688 124.25 -172.546875 C 122.613281 -174.878906 120.164062 -176.046875 116.90625 -176.046875 C 109.664062 -176.046875 103.007812 -173.882812 96.9375 -169.5625 C 90.875 -165.25 85.742188 -159.707031 81.546875 -152.9375 C 77.347656 -146.175781 74.082031 -139.003906 71.75 -131.421875 C 69.414062 -123.835938 68.25 -116.78125 68.25 -110.25 L 68.25 -36.046875 C 68.25 -24.617188 71.570312 -16.976562 78.21875 -13.125 C 84.875 -9.269531 93.914062 -7.34375 105.34375 -7.34375 L 105.34375 0 C 99.976562 -0.226562 92.394531 -0.519531 82.59375 -0.875 C 72.800781 -1.226562 62.421875 -1.40625 51.453125 -1.40625 C 43.515625 -1.40625 35.632812 -1.226562 27.8125 -0.875 C 20 -0.519531 14.113281 -0.226562 10.15625 0 L 10.15625 -7.34375 C 19.71875 -7.34375 26.539062 -9.09375 30.625 -12.59375 C 34.707031 -16.09375 36.75 -22.742188 36.75 -32.546875 L 36.75 -142.09375 C 36.75 -152.59375 34.878906 -160.351562 31.140625 -165.375 C 27.410156 -170.394531 20.414062 -172.90625 10.15625 -172.90625 L 10.15625 -180.25 C 17.613281 -179.550781 24.84375 -179.203125 31.84375 -179.203125 C 38.613281 -179.203125 45.085938 -179.609375 51.265625 -180.421875 C 57.453125 -181.242188 63.113281 -182.46875 68.25 -184.09375 L 68.25 -140.34375 C 70.8125 -147.113281 74.484375 -153.941406 79.265625 -160.828125 C 84.054688 -167.710938 89.832031 -173.488281 96.59375 -178.15625 C 103.363281 -182.820312 110.832031 -185.15625 119 -185.15625 Z M 119 -185.15625 "/></g></g></g><g fill="#ffffff" fill-opacity="1"><g transform="translate(1106.968106, 519.374995)"><g/></g></g><g fill="#ffffff" fill-opacity="1"><g transform="translate(1194.116692, 519.374995)"><g><path d="M 129.84375 -252.703125 C 145.25 -252.703125 157.910156 -250.425781 167.828125 -245.875 C 177.742188 -241.320312 186.550781 -236.015625 194.25 -229.953125 C 198.914062 -226.453125 202.472656 -226.039062 204.921875 -228.71875 C 207.367188 -231.40625 209.0625 -237.765625 210 -247.796875 L 218.046875 -247.796875 C 217.578125 -239.160156 217.226562 -228.660156 217 -216.296875 C 216.769531 -203.929688 216.65625 -187.597656 216.65625 -167.296875 L 208.59375 -167.296875 C 206.96875 -177.328125 205.453125 -185.316406 204.046875 -191.265625 C 202.648438 -197.222656 200.957031 -202.300781 198.96875 -206.5 C 196.988281 -210.695312 194.363281 -214.894531 191.09375 -219.09375 C 183.863281 -228.664062 174.765625 -235.609375 163.796875 -239.921875 C 152.828125 -244.242188 141.28125 -246.40625 129.15625 -246.40625 C 117.71875 -246.40625 107.390625 -243.546875 98.171875 -237.828125 C 88.953125 -232.109375 81.019531 -223.878906 74.375 -213.140625 C 67.726562 -202.410156 62.59375 -189.460938 58.96875 -174.296875 C 55.351562 -159.128906 53.546875 -142.097656 53.546875 -123.203125 C 53.546875 -103.597656 55.53125 -86.269531 59.5 -71.21875 C 63.46875 -56.175781 69.007812 -43.519531 76.125 -33.25 C 83.238281 -22.976562 91.632812 -15.21875 101.3125 -9.96875 C 111 -4.71875 121.445312 -2.09375 132.65625 -2.09375 C 143.15625 -2.09375 154.117188 -4.191406 165.546875 -8.390625 C 176.984375 -12.597656 185.96875 -19.367188 192.5 -28.703125 C 197.632812 -35.460938 201.191406 -42.8125 203.171875 -50.75 C 205.160156 -58.6875 206.96875 -69.769531 208.59375 -84 L 216.65625 -84 C 216.65625 -62.769531 216.769531 -45.675781 217 -32.71875 C 217.226562 -19.769531 217.578125 -8.863281 218.046875 0 L 210 0 C 209.0625 -10.03125 207.484375 -16.328125 205.265625 -18.890625 C 203.054688 -21.460938 199.382812 -21.113281 194.25 -17.84375 C 185.613281 -11.78125 176.453125 -6.472656 166.765625 -1.921875 C 157.085938 2.628906 144.664062 4.90625 129.5 4.90625 C 107.332031 4.90625 87.90625 -0.109375 71.21875 -10.140625 C 54.539062 -20.179688 41.59375 -34.648438 32.375 -53.546875 C 23.15625 -72.453125 18.546875 -95.203125 18.546875 -121.796875 C 18.546875 -147.929688 23.328125 -170.796875 32.890625 -190.390625 C 42.460938 -209.992188 55.585938 -225.28125 72.265625 -236.25 C 88.953125 -247.21875 108.144531 -252.703125 129.84375 -252.703125 Z M 129.84375 -252.703125 "/></g></g></g><g fill="#ffffff" fill-opacity="1"><g transform="translate(1434.91282, 519.374995)"><g><path d="M 65.09375 -274.046875 L 65.09375 -143.15625 C 71.164062 -159.019531 79.625 -169.984375 90.46875 -176.046875 C 101.320312 -182.117188 112.695312 -185.15625 124.59375 -185.15625 C 133.46875 -185.15625 140.878906 -183.988281 146.828125 -181.65625 C 152.773438 -179.320312 157.734375 -176.050781 161.703125 -171.84375 C 166.128906 -167.175781 169.273438 -161.34375 171.140625 -154.34375 C 173.015625 -147.34375 173.953125 -137.894531 173.953125 -126 L 173.953125 -32.546875 C 173.953125 -22.742188 175.992188 -16.09375 180.078125 -12.59375 C 184.160156 -9.09375 190.984375 -7.34375 200.546875 -7.34375 L 200.546875 0 C 196.578125 -0.226562 190.507812 -0.519531 182.34375 -0.875 C 174.175781 -1.226562 166.242188 -1.40625 158.546875 -1.40625 C 150.847656 -1.40625 143.320312 -1.226562 135.96875 -0.875 C 128.625 -0.519531 123.082031 -0.226562 119.34375 0 L 119.34375 -7.34375 C 127.75 -7.34375 133.703125 -9.09375 137.203125 -12.59375 C 140.703125 -16.09375 142.453125 -22.742188 142.453125 -32.546875 L 142.453125 -133.703125 C 142.453125 -140.929688 141.867188 -147.578125 140.703125 -153.640625 C 139.535156 -159.710938 136.910156 -164.613281 132.828125 -168.34375 C 128.742188 -172.082031 122.5 -173.953125 114.09375 -173.953125 C 104.53125 -173.953125 96.070312 -171.265625 88.71875 -165.890625 C 81.375 -160.523438 75.597656 -153.0625 71.390625 -143.5 C 67.191406 -133.9375 65.09375 -122.96875 65.09375 -110.59375 L 65.09375 -32.546875 C 65.09375 -22.742188 66.84375 -16.09375 70.34375 -12.59375 C 73.84375 -9.09375 79.796875 -7.34375 88.203125 -7.34375 L 88.203125 0 C 84.460938 -0.226562 78.914062 -0.519531 71.5625 -0.875 C 64.21875 -1.226562 56.695312 -1.40625 49 -1.40625 C 41.300781 -1.40625 33.367188 -1.226562 25.203125 -0.875 C 17.035156 -0.519531 10.96875 -0.226562 7 0 L 7 -7.34375 C 16.5625 -7.34375 23.382812 -9.09375 27.46875 -12.59375 C 31.550781 -16.09375 33.59375 -22.742188 33.59375 -32.546875 L 33.59375 -232.046875 C 33.59375 -242.546875 31.726562 -250.300781 28 -255.3125 C 24.269531 -260.332031 17.269531 -262.84375 7 -262.84375 L 7 -270.203125 C 14.46875 -269.503906 21.703125 -269.15625 28.703125 -269.15625 C 35.460938 -269.15625 41.9375 -269.5625 48.125 -270.375 C 54.3125 -271.1875 59.96875 -272.410156 65.09375 -274.046875 Z M 65.09375 -274.046875 "/></g></g></g><g fill="#ffffff" fill-opacity="1"><g transform="translate(1640.709532, 519.374995)"><g><path d="M 59.84375 2.453125 C 50.28125 2.453125 42 0.644531 35 -2.96875 C 28 -6.59375 22.691406 -11.671875 19.078125 -18.203125 C 15.460938 -24.734375 13.65625 -32.316406 13.65625 -40.953125 C 13.65625 -51.210938 16.046875 -59.609375 20.828125 -66.140625 C 25.609375 -72.679688 31.734375 -77.929688 39.203125 -81.890625 C 46.671875 -85.859375 54.546875 -89.1875 62.828125 -91.875 C 71.109375 -94.5625 78.984375 -97.128906 86.453125 -99.578125 C 93.921875 -102.023438 100.046875 -104.878906 104.828125 -108.140625 C 109.609375 -111.410156 112 -115.726562 112 -121.09375 L 112 -142.796875 C 112 -152.597656 110.539062 -160.066406 107.625 -165.203125 C 104.707031 -170.335938 100.796875 -173.78125 95.890625 -175.53125 C 90.992188 -177.28125 85.515625 -178.15625 79.453125 -178.15625 C 73.617188 -178.15625 67.375 -177.335938 60.71875 -175.703125 C 54.070312 -174.066406 48.765625 -170.679688 44.796875 -165.546875 C 49.234375 -164.617188 53.082031 -162.285156 56.34375 -158.546875 C 59.613281 -154.816406 61.25 -150.035156 61.25 -144.203125 C 61.25 -138.367188 59.378906 -133.757812 55.640625 -130.375 C 51.910156 -126.988281 47.128906 -125.296875 41.296875 -125.296875 C 34.535156 -125.296875 29.578125 -127.453125 26.421875 -131.765625 C 23.273438 -136.085938 21.703125 -140.929688 21.703125 -146.296875 C 21.703125 -152.367188 23.21875 -157.269531 26.25 -161 C 29.28125 -164.726562 33.128906 -168.226562 37.796875 -171.5 C 43.160156 -175.226562 50.101562 -178.4375 58.625 -181.125 C 67.144531 -183.8125 76.769531 -185.15625 87.5 -185.15625 C 97.0625 -185.15625 105.226562 -184.046875 112 -181.828125 C 118.769531 -179.609375 124.367188 -176.398438 128.796875 -172.203125 C 134.867188 -166.597656 138.835938 -159.769531 140.703125 -151.71875 C 142.566406 -143.675781 143.5 -134.050781 143.5 -122.84375 L 143.5 -25.546875 C 143.5 -19.710938 144.375 -15.507812 146.125 -12.9375 C 147.875 -10.375 150.613281 -9.09375 154.34375 -9.09375 C 156.914062 -9.09375 159.367188 -9.675781 161.703125 -10.84375 C 164.035156 -12.007812 166.832031 -13.878906 170.09375 -16.453125 L 173.953125 -10.5 C 169.046875 -6.769531 164.375 -3.675781 159.9375 -1.21875 C 155.507812 1.226562 149.5625 2.453125 142.09375 2.453125 C 135.332031 2.453125 129.734375 1.285156 125.296875 -1.046875 C 120.867188 -3.378906 117.546875 -6.820312 115.328125 -11.375 C 113.109375 -15.925781 112 -21.703125 112 -28.703125 C 105.695312 -18.203125 98.171875 -10.382812 89.421875 -5.25 C 80.671875 -0.113281 70.8125 2.453125 59.84375 2.453125 Z M 72.453125 -11.546875 C 80.148438 -11.546875 87.320312 -13.757812 93.96875 -18.1875 C 100.625 -22.625 106.632812 -29.28125 112 -38.15625 L 112 -106.75 C 109.195312 -102.78125 105.113281 -99.453125 99.75 -96.765625 C 94.382812 -94.085938 88.550781 -91.40625 82.25 -88.71875 C 75.945312 -86.039062 69.9375 -82.890625 64.21875 -79.265625 C 58.507812 -75.648438 53.785156 -70.925781 50.046875 -65.09375 C 46.316406 -59.257812 44.453125 -51.675781 44.453125 -42.34375 C 44.453125 -33.007812 46.957031 -25.539062 51.96875 -19.9375 C 56.988281 -14.34375 63.816406 -11.546875 72.453125 -11.546875 Z M 72.453125 -11.546875 "/></g></g></g><g fill="#ffffff" fill-opacity="1"><g transform="translate(1815.006704, 519.374995)"><g><path d="M 95.90625 -185.15625 C 110.832031 -185.15625 124.242188 -181.882812 136.140625 -175.34375 C 148.046875 -168.8125 157.554688 -158.546875 164.671875 -144.546875 C 171.785156 -130.546875 175.34375 -112.347656 175.34375 -89.953125 C 175.34375 -67.546875 171.785156 -49.398438 164.671875 -35.515625 C 157.554688 -21.640625 148.046875 -11.429688 136.140625 -4.890625 C 124.242188 1.640625 110.832031 4.90625 95.90625 4.90625 C 81.195312 4.90625 67.832031 1.640625 55.8125 -4.890625 C 43.800781 -11.429688 34.238281 -21.640625 27.125 -35.515625 C 20.007812 -49.398438 16.453125 -67.546875 16.453125 -89.953125 C 16.453125 -112.347656 20.007812 -130.546875 27.125 -144.546875 C 34.238281 -158.546875 43.800781 -168.8125 55.8125 -175.34375 C 67.832031 -181.882812 81.195312 -185.15625 95.90625 -185.15625 Z M 95.90625 -178.15625 C 82.601562 -178.15625 71.691406 -171.269531 63.171875 -157.5 C 54.660156 -143.726562 50.40625 -121.210938 50.40625 -89.953125 C 50.40625 -58.679688 54.660156 -36.21875 63.171875 -22.5625 C 71.691406 -8.914062 82.601562 -2.09375 95.90625 -2.09375 C 109.195312 -2.09375 120.101562 -8.914062 128.625 -22.5625 C 137.144531 -36.21875 141.40625 -58.679688 141.40625 -89.953125 C 141.40625 -121.210938 137.144531 -143.726562 128.625 -157.5 C 120.101562 -171.269531 109.195312 -178.15625 95.90625 -178.15625 Z M 95.90625 -178.15625 "/></g></g></g><g fill="#ffffff" fill-opacity="1"><g transform="translate(2006.803632, 519.374995)"><g><path d="M 72.796875 -185.15625 C 82.128906 -185.15625 90.0625 -183.632812 96.59375 -180.59375 C 103.132812 -177.5625 107.921875 -174.765625 110.953125 -172.203125 C 118.648438 -165.898438 123.316406 -170.097656 124.953125 -184.796875 L 133 -184.796875 C 132.53125 -178.265625 132.175781 -170.503906 131.9375 -161.515625 C 131.707031 -152.535156 131.59375 -140.460938 131.59375 -125.296875 L 123.546875 -125.296875 C 122.148438 -133.929688 119.757812 -142.332031 116.375 -150.5 C 112.988281 -158.664062 108.03125 -165.375 101.5 -170.625 C 94.96875 -175.875 86.453125 -178.5 75.953125 -178.5 C 67.785156 -178.5 60.957031 -176.222656 55.46875 -171.671875 C 49.988281 -167.117188 47.25 -160.410156 47.25 -151.546875 C 47.25 -144.546875 49.347656 -138.535156 53.546875 -133.515625 C 57.742188 -128.503906 63.226562 -123.835938 70 -119.515625 C 76.769531 -115.203125 84.117188 -110.476562 92.046875 -105.34375 C 100.910156 -99.75 108.957031 -94.035156 116.1875 -88.203125 C 123.425781 -82.367188 129.203125 -75.953125 133.515625 -68.953125 C 137.835938 -61.953125 140 -53.664062 140 -44.09375 C 140 -33.363281 137.195312 -24.378906 131.59375 -17.140625 C 126 -9.910156 118.707031 -4.425781 109.71875 -0.6875 C 100.738281 3.039062 90.882812 4.90625 80.15625 4.90625 C 75.019531 4.90625 70.175781 4.492188 65.625 3.671875 C 61.070312 2.859375 56.695312 1.632812 52.5 0 C 50.164062 -1.164062 47.773438 -2.566406 45.328125 -4.203125 C 42.878906 -5.835938 40.488281 -7.585938 38.15625 -9.453125 C 35.820312 -11.316406 33.71875 -11.253906 31.84375 -9.265625 C 29.976562 -7.285156 28.582031 -3.378906 27.65625 2.453125 L 19.59375 2.453125 C 20.0625 -5.015625 20.410156 -14.113281 20.640625 -24.84375 C 20.878906 -35.582031 21 -49.816406 21 -67.546875 L 29.046875 -67.546875 C 30.679688 -54.484375 33.015625 -43.050781 36.046875 -33.25 C 39.078125 -23.445312 43.859375 -15.800781 50.390625 -10.3125 C 56.929688 -4.832031 66.035156 -2.09375 77.703125 -2.09375 C 82.367188 -2.09375 87.09375 -3.144531 91.875 -5.25 C 96.65625 -7.351562 100.675781 -10.851562 103.9375 -15.75 C 107.207031 -20.644531 108.84375 -27.175781 108.84375 -35.34375 C 108.84375 -45.613281 105.109375 -54.015625 97.640625 -60.546875 C 90.179688 -67.078125 80.734375 -73.960938 69.296875 -81.203125 C 60.898438 -86.566406 53.023438 -91.929688 45.671875 -97.296875 C 38.328125 -102.660156 32.378906 -108.726562 27.828125 -115.5 C 23.273438 -122.269531 21 -130.4375 21 -140 C 21 -150.5 23.390625 -159.070312 28.171875 -165.71875 C 32.953125 -172.375 39.3125 -177.273438 47.25 -180.421875 C 55.1875 -183.578125 63.703125 -185.15625 72.796875 -185.15625 Z M 72.796875 -185.15625 "/></g></g></g></svg>